<mxfile host="app.diagrams.net" modified="2024-05-03T16:34:20.326Z" agent="Mozilla/5.0 (Windows NT 10.0; Win64; x64) AppleWebKit/537.36 (KHTML, como Gecko) Chrome/124.0.0.0 Safari/537.36 Edg/124.0.0.0" etag="12x5agfRPkhNAHZX_YWX" version="24.3.1" type="google">
  <diagram name="Ejercicio 9" id="Nr4L_uDCZGbhjKQfmc-h">
    <mxGraphModel grid="1" page="1" gridSize="10" guides="1" tooltips="1" connect="1" arrows="1" fold="1" pageScale="1" pageWidth="827" pageHeight="1169" math="0" shadow="0">
      <root>
        <mxCell id="0" />
        <mxCell id="1" parent="0" />
        <mxCell id="CNzCqum64-IxNHnGtIyT-3" value="" style="edgeStyle=orthogonalEdgeStyle;rounded=0;orthogonalLoop=1;jettySize=auto;html=1;" edge="1" parent="1" source="CNzCqum64-IxNHnGtIyT-1" target="CNzCqum64-IxNHnGtIyT-2">
          <mxGeometry relative="1" as="geometry" />
        </mxCell>
        <mxCell id="CNzCqum64-IxNHnGtIyT-1" value="INICIO" style="ellipse;whiteSpace=wrap;html=1;" vertex="1" parent="1">
          <mxGeometry x="310" y="30" width="80" height="80" as="geometry" />
        </mxCell>
        <mxCell id="CNzCqum64-IxNHnGtIyT-2" value="INPUT&lt;div&gt;cadena&lt;/div&gt;" style="shape=parallelogram;perimeter=parallelogramPerimeter;whiteSpace=wrap;html=1;fixedSize=1;" vertex="1" parent="1">
          <mxGeometry x="290" y="140" width="120" height="60" as="geometry" />
        </mxCell>
        <mxCell id="CNzCqum64-IxNHnGtIyT-4" value="partir cadena en palabras" style="whiteSpace=wrap;html=1;" vertex="1" parent="1">
          <mxGeometry x="290" y="230" width="120" height="60" as="geometry" />
        </mxCell>
        <mxCell id="CNzCqum64-IxNHnGtIyT-6" value="primeros = ''" style="whiteSpace=wrap;html=1;" vertex="1" parent="1">
          <mxGeometry x="290" y="310" width="120" height="60" as="geometry" />
        </mxCell>
        <mxCell id="CNzCqum64-IxNHnGtIyT-8" value="agregar primer carÃ¡cter de cada palabra" style="whiteSpace=wrap;html=1;" vertex="1" parent="1">
          <mxGeometry x="290" y="390" width="120" height="60" as="geometry" />
        </mxCell>
        <mxCell id="CNzCqum64-IxNHnGtIyT-10" value="imprimir primeros" style="whiteSpace=wrap;html=1;" vertex="1" parent="1">
          <mxGeometry x="310" y="470" width="80" height="40" as="geometry" />
        </mxCell>
        <mxCell id="CNzCqum64-IxNHnGtIyT-12" value="primeros[0] == primeros[-1]" style="rhombus;whiteSpace=wrap;html=1;" vertex="1" parent="1">
          <mxGeometry x="310" y="550" width="80" height="80" as="geometry" />
        </mxCell>
        <mxCell id="CNzCqum64-IxNHnGtIyT-14" value="imprimir Hemos encontrado algo!" style="whiteSpace=wrap;html=1;" vertex="1" parent="1">
          <mxGeometry x="440" y="570" width="80" height="40" as="geometry" />
        </mxCell>
        <mxCell id="CNzCqum64-IxNHnGtIyT-16" value="imprimir Aun sin suerte" style="whiteSpace=wrap;html=1;" vertex="1" parent="1">
          <mxGeometry x="310" y="650" width="80" height="40" as="geometry" />
        </mxCell>
        <mxCell id="CNzCqum64-IxNHnGtIyT-18" value="FIN" style="ellipse;whiteSpace=wrap;html=1;" vertex="1" parent="1">
          <mxGeometry x="310" y="730" width="80" height="80" as="geometry" />
        </mxCell>
      </root>
    </mxGraphModel>
  </diagram>
</mxfile>
